<svg class="diagram-root" style="background: #f5f6f6" xmlns="http://www.w3.org/2000/svg" xmlns:xlink="http://www.w3.org/1999/xlink"><style>.diagram-root { font-family: "Helvetica Neue", sans-serif; font-size: 12px; } .t { overflow: visible; } .t-bg { y: 40; fill: #fff;   } .th { fill: #005aa0;   } .tht { fill: #fff; font-size: 14px;  } .tf { fill: #323c46; overflow: visible; } .tf.pk { fill: #005aa0; font-weight: bold; } .tf.fk { font-weight: bold; } .ty { fill: #adb1b5; font-weight: normal; text-anchor: end; } .r { fill: transparent; stroke: #c3c3c3; stroke-width: 1; } .l { stroke: 1; } .i { fill: #c2c7ce; stroke: #c2c7ce; } .i.ix { fill: #afb3b6; stroke: #000; } .fa { fill: transparent; overflow: visible; } .fa .bg.hover { fill: #f7f7f7; } .c { cy: 12; r: 4; stroke: #d2d2dc; fill: #d2d2dc; } .hr { fill: transparent; stroke: #323c46; stroke-opacity: 0.035; stroke-width: 13; } .dc { stroke: #fa5a3c; fill: #fa5a3c; } .x { stroke: white; stroke-width: 1; } .hl .th { fill: #1b9bff; } .hl .tht {  } .fhl .bg { fill: #e7f4ff; } .fhls .bg {  } .r.hl { stroke: #1b9bff; } .dim { opacity: 0.25; }</style><g class="drawing-wrapper" transform="translate(490.58, 39.776363636363634) scale(1,1)"><g class="rs"><path d="M 263.91 77.86 m -1, 0 a 1,1 0 1,0 2,0 a 1,1 0 1,0 -2,0 M 263.91 77.86 m -0.5, 0 a 0.5,0.5 0 1,0 1,0 a 0.5,0.5 0 1,0 -1,0  M263.91 77.86 L263.91 77.86 275.91 77.86 M 263.91 83.86 m -1, 0 a 1,1 0 1,0 2,0 a 1,1 0 1,0 -2,0 M 263.91 83.86 m -0.5, 0 a 0.5,0.5 0 1,0 1,0 a 0.5,0.5 0 1,0 -1,0  M263.91 83.86 L263.91 83.86 270.91 77.86 263.91 71.86 M 263.91 71.86 m -1, 0 a 1,1 0 1,0 2,0 a 1,1 0 1,0 -2,0 M 263.91 71.86 m -0.5, 0 a 0.5,0.5 0 1,0 1,0 a 0.5,0.5 0 1,0 -1,0  M275.91 77.86 Q 296.22 77.86, 316.52 125.2 T 357.14 172.54000000000002 M 369.14 172.54000000000002 m -1, 0 a 1,1 0 1,0 2,0 a 1,1 0 1,0 -2,0 M 369.14 172.54000000000002 m -0.5, 0 a 0.5,0.5 0 1,0 1,0 a 0.5,0.5 0 1,0 -1,0  M369.14 172.54000000000002 L369.14 172.54000000000002 357.14 172.54000000000002 M363.14 178.54000000000002 L363.14 178.54000000000002 363.14 166.54000000000002" id="h1537058300" class="r"></path><path d="M -182.31 47.22 m -1, 0 a 1,1 0 1,0 2,0 a 1,1 0 1,0 -2,0 M -182.31 47.22 m -0.5, 0 a 0.5,0.5 0 1,0 1,0 a 0.5,0.5 0 1,0 -1,0  M-182.31 47.22 L-182.31 47.22 -194.31 47.22 M -182.31 53.22 m -1, 0 a 1,1 0 1,0 2,0 a 1,1 0 1,0 -2,0 M -182.31 53.22 m -0.5, 0 a 0.5,0.5 0 1,0 1,0 a 0.5,0.5 0 1,0 -1,0  M-182.31 53.22 L-182.31 53.22 -189.31 47.22 -182.31 41.22 M -182.31 41.22 m -1, 0 a 1,1 0 1,0 2,0 a 1,1 0 1,0 -2,0 M -182.31 41.22 m -0.5, 0 a 0.5,0.5 0 1,0 1,0 a 0.5,0.5 0 1,0 -1,0  M-194.31 47.22 Q -214.27 47.22, -234.24 49.35 T -274.18 51.47 M -286.18 51.47 m -1, 0 a 1,1 0 1,0 2,0 a 1,1 0 1,0 -2,0 M -286.18 51.47 m -0.5, 0 a 0.5,0.5 0 1,0 1,0 a 0.5,0.5 0 1,0 -1,0  M-286.18 51.47 L-286.18 51.47 -274.18 51.47 M-280.18 57.47 L-280.18 57.47 -280.18 45.47" id="h1607168654" class="r"></path><path d="M -18.25 72.22 m -1, 0 a 1,1 0 1,0 2,0 a 1,1 0 1,0 -2,0 M -18.25 72.22 m -0.5, 0 a 0.5,0.5 0 1,0 1,0 a 0.5,0.5 0 1,0 -1,0  M-18.25 72.22 L-18.25 72.22 -6.25 72.22 M -18.25 78.22 m -1, 0 a 1,1 0 1,0 2,0 a 1,1 0 1,0 -2,0 M -18.25 78.22 m -0.5, 0 a 0.5,0.5 0 1,0 1,0 a 0.5,0.5 0 1,0 -1,0  M-18.25 78.22 L-18.25 78.22 -11.25 72.22 -18.25 66.22 M -18.25 66.22 m -1, 0 a 1,1 0 1,0 2,0 a 1,1 0 1,0 -2,0 M -18.25 66.22 m -0.5, 0 a 0.5,0.5 0 1,0 1,0 a 0.5,0.5 0 1,0 -1,0  M-6.25 72.22 Q 13.2 72.22, 32.64 62.54 T 71.53 52.86 M 83.53 52.86 m -1, 0 a 1,1 0 1,0 2,0 a 1,1 0 1,0 -2,0 M 83.53 52.86 m -0.5, 0 a 0.5,0.5 0 1,0 1,0 a 0.5,0.5 0 1,0 -1,0  M83.53 52.86 L83.53 52.86 71.53 52.86 M77.53 58.86 L77.53 58.86 77.53 46.86" id="h1139284389" class="r"></path><path d="M -180.26 196.7 m -1, 0 a 1,1 0 1,0 2,0 a 1,1 0 1,0 -2,0 M -180.26 196.7 m -0.5, 0 a 0.5,0.5 0 1,0 1,0 a 0.5,0.5 0 1,0 -1,0  M-180.26 196.7 L-180.26 196.7 -192.26 196.7 M -180.26 202.7 m -1, 0 a 1,1 0 1,0 2,0 a 1,1 0 1,0 -2,0 M -180.26 202.7 m -0.5, 0 a 0.5,0.5 0 1,0 1,0 a 0.5,0.5 0 1,0 -1,0  M-180.26 202.7 L-180.26 202.7 -187.26 196.7 -180.26 190.7 M -180.26 190.7 m -1, 0 a 1,1 0 1,0 2,0 a 1,1 0 1,0 -2,0 M -180.26 190.7 m -0.5, 0 a 0.5,0.5 0 1,0 1,0 a 0.5,0.5 0 1,0 -1,0  M-192.26 196.7 Q -212.74 196.7, -233.22 124.09 T -274.18 51.47 M -286.18 51.47 m -1, 0 a 1,1 0 1,0 2,0 a 1,1 0 1,0 -2,0 M -286.18 51.47 m -0.5, 0 a 0.5,0.5 0 1,0 1,0 a 0.5,0.5 0 1,0 -1,0  M-286.18 51.47 L-286.18 51.47 -274.18 51.47 M-280.18 57.47 L-280.18 57.47 -280.18 45.47" id="h1397587031" class="r"></path><path d="M -16.2 221.7 m -1, 0 a 1,1 0 1,0 2,0 a 1,1 0 1,0 -2,0 M -16.2 221.7 m -0.5, 0 a 0.5,0.5 0 1,0 1,0 a 0.5,0.5 0 1,0 -1,0  M-16.2 221.7 L-16.2 221.7 -4.199999999999999 221.7 M -16.2 227.7 m -1, 0 a 1,1 0 1,0 2,0 a 1,1 0 1,0 -2,0 M -16.2 227.7 m -0.5, 0 a 0.5,0.5 0 1,0 1,0 a 0.5,0.5 0 1,0 -1,0  M-16.2 227.7 L-16.2 227.7 -9.2 221.7 -16.2 215.7 M -16.2 215.7 m -1, 0 a 1,1 0 1,0 2,0 a 1,1 0 1,0 -2,0 M -16.2 215.7 m -0.5, 0 a 0.5,0.5 0 1,0 1,0 a 0.5,0.5 0 1,0 -1,0  M-4.199999999999999 221.7 Q 14.74 221.7, 33.67 137.28 T 71.53 52.86 M 83.53 52.86 m -1, 0 a 1,1 0 1,0 2,0 a 1,1 0 1,0 -2,0 M 83.53 52.86 m -0.5, 0 a 0.5,0.5 0 1,0 1,0 a 0.5,0.5 0 1,0 -1,0  M83.53 52.86 L83.53 52.86 71.53 52.86 M77.53 58.86 L77.53 58.86 77.53 46.86" id="h2286254435" class="r"></path><path d="M 383.58 48.35 m -1, 0 a 1,1 0 1,0 2,0 a 1,1 0 1,0 -2,0 M 383.58 48.35 m -0.5, 0 a 0.5,0.5 0 1,0 1,0 a 0.5,0.5 0 1,0 -1,0  M383.58 48.35 L383.58 48.35 380.58 48.35 M 377.58 48.35 m -3, 0 a 3,3 0 1,0 6,0 a 3,3 0 1,0 -6,0 M374.58 48.35 L374.58 48.35 371.58 48.35 M371.58 48.35 Q 347.67 48.35, 323.75 50.61 T 275.91 52.86 M 263.91 52.86 m -1, 0 a 1,1 0 1,0 2,0 a 1,1 0 1,0 -2,0 M 263.91 52.86 m -0.5, 0 a 0.5,0.5 0 1,0 1,0 a 0.5,0.5 0 1,0 -1,0  M263.91 52.86 L263.91 52.86 275.91 52.86 M269.91 58.86 L269.91 58.86 269.91 46.86" id="h3177548053" class="r"></path></g><g class="hrs"></g><g class="ts"><svg width="182.4" height="100" x="-468.58" y="-5.53" id="h475896179" class="t"><rect height="40" width="182.4" class="th"></rect><text x="13" y="25" class="tht">departments</text><rect height="60" width="182.4" class="t-bg"></rect><text x="13" y="61" class="tf pk">dept_no<tspan x="169.4" class="ty">varchar(4)</tspan></text><path d="M7,14A2,2 0 0,1 5,12A2,2 0 0,1 7,10A2,2 0 0,1 9,12A2,2 0 0,1 7,14M12.65,10C11.83,7.67 9.61,6 7, 6A6, 6 0 0, 0 1, 12A6, 6 0 0, 0 7, 18C9.61, 18 11.83, 16.33 12.65, 14H17V18H21V14H23V10H12.65Z" class="i pk" transform="translate(94.7203125, 48) scale(0.65)"></path><text x="13" y="86" class="tf">dept_name<tspan x="169.4" class="ty">varchar(30)</tspan></text><path d="M814.545 581.818v-23.273H535.273v-93.09h-46.546v93.09H209.455v139.637H256V605.09h232.727v93.09h46.546v-93.09H768v93.09h46.545V581.819zM674.91 465.455H349.091V139.636h325.818v325.819zM325.82 884.364H139.635V698.182h186.182v186.182z m279.272 0H418.909V698.182h186.182v186.182z m279.273 0H698.182V698.182h186.182v186.182zM395.636 418.909h232.728V186.182H395.636v232.727zM186.182 837.82h93.09v-93.092h-93.09v93.091z m279.273 0h93.09v-93.092h-93.09v93.091z m279.272 0h93.091v-93.092h-93.09v93.091z" class="i ix" transform="translate(93.046484375, 75) scale(0.014)"></path></svg><svg width="155.37" height="100" x="369.14" y="115.54" id="h311790747" class="t"><rect height="40" width="155.37" class="th"></rect><text x="13" y="25" class="tht">titles</text><rect height="60" width="155.37" class="t-bg"></rect><text x="13" y="61" class="tf pk">title_id<tspan x="142.37" class="ty">varchar(5)</tspan></text><path d="M7,14A2,2 0 0,1 5,12A2,2 0 0,1 7,10A2,2 0 0,1 9,12A2,2 0 0,1 7,14M12.65,10C11.83,7.67 9.61,6 7, 6A6, 6 0 0, 0 1, 12A6, 6 0 0, 0 7, 18C9.61, 18 11.83, 16.33 12.65, 14H17V18H21V14H23V10H12.65Z" class="i pk" transform="translate(67.6903125, 48) scale(0.65)"></path><text x="13" y="86" class="tf">title<tspan x="142.37" class="ty">varchar(30)</tspan></text><path d="M814.545 581.818v-23.273H535.273v-93.09h-46.546v93.09H209.455v139.637H256V605.09h232.727v93.09h46.546v-93.09H768v93.09h46.545V581.819zM674.91 465.455H349.091V139.636h325.818v325.819zM325.82 884.364H139.635V698.182h186.182v186.182z m279.272 0H418.909V698.182h186.182v186.182z m279.273 0H698.182V698.182h186.182v186.182zM395.636 418.909h232.728V186.182H395.636v232.727zM186.182 837.82h93.09v-93.092h-93.09v93.091z m279.273 0h93.09v-93.092h-93.09v93.091z m279.272 0h93.091v-93.092h-93.09v93.091z" class="i ix" transform="translate(66.016484375, 75) scale(0.014)"></path></svg><svg width="180.38" height="225" x="83.53" y="-4.14" id="h1639608377" class="t"><rect height="40" width="180.38" class="th"></rect><text x="13" y="25" class="tht">employees</text><rect height="185" width="180.38" class="t-bg"></rect><text x="13" y="61" class="tf pk">emp_no<tspan x="167.38" class="ty">int</tspan></text><path d="M7,14A2,2 0 0,1 5,12A2,2 0 0,1 7,10A2,2 0 0,1 9,12A2,2 0 0,1 7,14M12.65,10C11.83,7.67 9.61,6 7, 6A6, 6 0 0, 0 1, 12A6, 6 0 0, 0 7, 18C9.61, 18 11.83, 16.33 12.65, 14H17V18H21V14H23V10H12.65Z" class="i pk" transform="translate(134.706171875, 48) scale(0.65)"></path><text x="13" y="86" class="tf fk">emp_title_id<tspan x="167.38" class="ty">varchar(5)</tspan></text><path d="M814.545 581.818v-23.273H535.273v-93.09h-46.546v93.09H209.455v139.637H256V605.09h232.727v93.09h46.546v-93.09H768v93.09h46.545V581.819zM674.91 465.455H349.091V139.636h325.818v325.819zM325.82 884.364H139.635V698.182h186.182v186.182z m279.272 0H418.909V698.182h186.182v186.182z m279.273 0H698.182V698.182h186.182v186.182zM395.636 418.909h232.728V186.182H395.636v232.727zM186.182 837.82h93.09v-93.092h-93.09v93.091z m279.273 0h93.09v-93.092h-93.09v93.091z m279.272 0h93.091v-93.092h-93.09v93.091z" class="i ix" transform="translate(97.7003125, 75) scale(0.014)"></path><text x="13" y="111" class="tf">birth_date<tspan x="167.38" class="ty">date</tspan></text><path d="M814.545 581.818v-23.273H535.273v-93.09h-46.546v93.09H209.455v139.637H256V605.09h232.727v93.09h46.546v-93.09H768v93.09h46.545V581.819zM674.91 465.455H349.091V139.636h325.818v325.819zM325.82 884.364H139.635V698.182h186.182v186.182z m279.272 0H418.909V698.182h186.182v186.182z m279.273 0H698.182V698.182h186.182v186.182zM395.636 418.909h232.728V186.182H395.636v232.727zM186.182 837.82h93.09v-93.092h-93.09v93.091z m279.273 0h93.09v-93.092h-93.09v93.091z m279.272 0h93.091v-93.092h-93.09v93.091z" class="i ix" transform="translate(129.02453125, 100) scale(0.014)"></path><text x="13" y="136" class="tf">first_name<tspan x="167.38" class="ty">varchar(30)</tspan></text><path d="M814.545 581.818v-23.273H535.273v-93.09h-46.546v93.09H209.455v139.637H256V605.09h232.727v93.09h46.546v-93.09H768v93.09h46.545V581.819zM674.91 465.455H349.091V139.636h325.818v325.819zM325.82 884.364H139.635V698.182h186.182v186.182z m279.272 0H418.909V698.182h186.182v186.182z m279.273 0H698.182V698.182h186.182v186.182zM395.636 418.909h232.728V186.182H395.636v232.727zM186.182 837.82h93.09v-93.092h-93.09v93.091z m279.273 0h93.09v-93.092h-93.09v93.091z m279.272 0h93.091v-93.092h-93.09v93.091z" class="i ix" transform="translate(91.026484375, 125) scale(0.014)"></path><text x="13" y="161" class="tf">last_name<tspan x="167.38" class="ty">varchar(30)</tspan></text><path d="M814.545 581.818v-23.273H535.273v-93.09h-46.546v93.09H209.455v139.637H256V605.09h232.727v93.09h46.546v-93.09H768v93.09h46.545V581.819zM674.91 465.455H349.091V139.636h325.818v325.819zM325.82 884.364H139.635V698.182h186.182v186.182z m279.272 0H418.909V698.182h186.182v186.182z m279.273 0H698.182V698.182h186.182v186.182zM395.636 418.909h232.728V186.182H395.636v232.727zM186.182 837.82h93.09v-93.092h-93.09v93.091z m279.273 0h93.09v-93.092h-93.09v93.091z m279.272 0h93.091v-93.092h-93.09v93.091z" class="i ix" transform="translate(91.026484375, 150) scale(0.014)"></path><text x="13" y="186" class="tf">sex<tspan x="167.38" class="ty">varchar(1)</tspan></text><path d="M814.545 581.818v-23.273H535.273v-93.09h-46.546v93.09H209.455v139.637H256V605.09h232.727v93.09h46.546v-93.09H768v93.09h46.545V581.819zM674.91 465.455H349.091V139.636h325.818v325.819zM325.82 884.364H139.635V698.182h186.182v186.182z m279.272 0H418.909V698.182h186.182v186.182z m279.273 0H698.182V698.182h186.182v186.182zM395.636 418.909h232.728V186.182H395.636v232.727zM186.182 837.82h93.09v-93.092h-93.09v93.091z m279.273 0h93.09v-93.092h-93.09v93.091z m279.272 0h93.091v-93.092h-93.09v93.091z" class="i ix" transform="translate(97.7003125, 175) scale(0.014)"></path><text x="13" y="211" class="tf">hire_date<tspan x="167.38" class="ty">date</tspan></text><path d="M814.545 581.818v-23.273H535.273v-93.09h-46.546v93.09H209.455v139.637H256V605.09h232.727v93.09h46.546v-93.09H768v93.09h46.545V581.819zM674.91 465.455H349.091V139.636h325.818v325.819zM325.82 884.364H139.635V698.182h186.182v186.182z m279.272 0H418.909V698.182h186.182v186.182z m279.273 0H698.182V698.182h186.182v186.182zM395.636 418.909h232.728V186.182H395.636v232.727zM186.182 837.82h93.09v-93.092h-93.09v93.091z m279.273 0h93.09v-93.092h-93.09v93.091z m279.272 0h93.091v-93.092h-93.09v93.091z" class="i ix" transform="translate(129.02453125, 200) scale(0.014)"></path></svg><svg width="164.06" height="100" x="-182.31" y="-9.78" id="h1090417462" class="t"><rect height="40" width="164.06" class="th"></rect><text x="13" y="25" class="tht">dept_emp</text><rect height="60" width="164.06" class="t-bg"></rect><text x="13" y="61" class="tf pk">dept_no<tspan x="151.06" class="ty">varchar(4)</tspan></text><path d="M7,14A2,2 0 0,1 5,12A2,2 0 0,1 7,10A2,2 0 0,1 9,12A2,2 0 0,1 7,14M12.65,10C11.83,7.67 9.61,6 7, 6A6, 6 0 0, 0 1, 12A6, 6 0 0, 0 7, 18C9.61, 18 11.83, 16.33 12.65, 14H17V18H21V14H23V10H12.65Z" class="i pk" transform="translate(76.3803125, 48) scale(0.65)"></path><text x="13" y="86" class="tf pk">emp_no<tspan x="151.06" class="ty">int</tspan></text><path d="M7,14A2,2 0 0,1 5,12A2,2 0 0,1 7,10A2,2 0 0,1 9,12A2,2 0 0,1 7,14M12.65,10C11.83,7.67 9.61,6 7, 6A6, 6 0 0, 0 1, 12A6, 6 0 0, 0 7, 18C9.61, 18 11.83, 16.33 12.65, 14H17V18H21V14H23V10H12.65Z" class="i pk" transform="translate(118.386171875, 73) scale(0.65)"></path></svg><svg width="164.06" height="100" x="-180.26" y="139.7" id="h1676682957" class="t"><rect height="40" width="164.06" class="th"></rect><text x="13" y="25" class="tht">dept_manager</text><rect height="60" width="164.06" class="t-bg"></rect><text x="13" y="61" class="tf pk">dept_no<tspan x="151.06" class="ty">varchar(4)</tspan></text><path d="M7,14A2,2 0 0,1 5,12A2,2 0 0,1 7,10A2,2 0 0,1 9,12A2,2 0 0,1 7,14M12.65,10C11.83,7.67 9.61,6 7, 6A6, 6 0 0, 0 1, 12A6, 6 0 0, 0 7, 18C9.61, 18 11.83, 16.33 12.65, 14H17V18H21V14H23V10H12.65Z" class="i pk" transform="translate(76.3803125, 48) scale(0.65)"></path><text x="13" y="86" class="tf pk">emp_no<tspan x="151.06" class="ty">int</tspan></text><path d="M7,14A2,2 0 0,1 5,12A2,2 0 0,1 7,10A2,2 0 0,1 9,12A2,2 0 0,1 7,14M12.65,10C11.83,7.67 9.61,6 7, 6A6, 6 0 0, 0 1, 12A6, 6 0 0, 0 7, 18C9.61, 18 11.83, 16.33 12.65, 14H17V18H21V14H23V10H12.65Z" class="i pk" transform="translate(118.386171875, 73) scale(0.65)"></path></svg><svg width="122.04" height="100" x="383.58" y="-8.65" id="h2472833127" class="t"><rect height="40" width="122.04" class="th"></rect><text x="13" y="25" class="tht">salaries</text><rect height="60" width="122.04" class="t-bg"></rect><text x="13" y="61" class="tf pk">emp_no<tspan x="109.04" class="ty">int</tspan></text><path d="M7,14A2,2 0 0,1 5,12A2,2 0 0,1 7,10A2,2 0 0,1 9,12A2,2 0 0,1 7,14M12.65,10C11.83,7.67 9.61,6 7, 6A6, 6 0 0, 0 1, 12A6, 6 0 0, 0 7, 18C9.61, 18 11.83, 16.33 12.65, 14H17V18H21V14H23V10H12.65Z" class="i pk" transform="translate(76.366171875, 48) scale(0.65)"></path><text x="13" y="86" class="tf">salary<tspan x="109.04" class="ty">int</tspan></text><path d="M814.545 581.818v-23.273H535.273v-93.09h-46.546v93.09H209.455v139.637H256V605.09h232.727v93.09h46.546v-93.09H768v93.09h46.545V581.819zM674.91 465.455H349.091V139.636h325.818v325.819zM325.82 884.364H139.635V698.182h186.182v186.182z m279.272 0H418.909V698.182h186.182v186.182z m279.273 0H698.182V698.182h186.182v186.182zM395.636 418.909h232.728V186.182H395.636v232.727zM186.182 837.82h93.09v-93.092h-93.09v93.091z m279.273 0h93.09v-93.092h-93.09v93.091z m279.272 0h93.091v-93.092h-93.09v93.091z" class="i ix" transform="translate(81.366171875, 75) scale(0.014)"></path></svg></g></g><text class="qdbd-link" x="10" y="20">www.quickdatabasediagrams.com</text></svg>